# xmcd CD database file
#
# Track frame offsets:
#	150
#	8059
#	12833
#	25589
#	42267
#	62708
#	85175
#	111840
#	125455
#	142891
#	152578
#	171046
#	185319
#	200894
#	208636
#	227039
#	232979
#	237756
#	255623
#	263099
#	276568
#	294280
#
# Disc length: 4112
# Revision: 2
# Processed by: cddbd v1.5.2PL0 Copyright (c) Steve Scherf et al.
# Submitted via: cddb.el 1.0 (Emacs 25.1.50.2)
#
DISCID=26100e16
DTITLE=The Residents - 80 Aching Orphans (1)
DYEAR=2017
DGENRE=
TTITLE0=Fire (Santa Dog)
TTITLE1=Amber
TTITLE2=Semolina
TTITLE3=This Is A Man's Man's Man's World
TTITLE4=Diskomo [Edit]
TTITLE5=Monkey And Bunny
TTITLE6=Jello Jack The Boneless Boy
TTITLE7=You Yesyesyes
TTITLE8=Double Shot
TTITLE9=Rushing Like A Banshee
TTITLE10=On The Way (To Oklahoma)
TTITLE11=Blue Rosebuds
TTITLE12=From The Plains To Mexico [Italian Mix]
TTITLE13=I'll Go Crazy
TTITLE14=Almost Perfect
TTITLE15=Eloise
TTITLE16=Moisture
TTITLE17=There's Blood On The Bunny [Thoreau Mix]
TTITLE18=Shortnin' Bread
TTITLE19=Burn Baby Burn
TTITLE20=The Car Thief
TTITLE21=Squeaky Wheels
EXTD=
EXTT0=
EXTT1=
EXTT2=
EXTT3=
EXTT4=
EXTT5=
EXTT6=
EXTT7=
EXTT8=
EXTT9=
EXTT10=
EXTT11=
EXTT12=
EXTT13=
EXTT14=
EXTT15=
EXTT16=
EXTT17=
EXTT18=
EXTT19=
EXTT20=
EXTT21=
PLAYORDER=
